<?xml version="1.0" encoding="UTF-8" standalone="no"?>
<!-- Created with Inkscape (http://www.inkscape.org/) -->

<svg
   xmlns:dc="http://purl.org/dc/elements/1.1/"
   xmlns:cc="http://creativecommons.org/ns#"
   xmlns:rdf="http://www.w3.org/1999/02/22-rdf-syntax-ns#"
   xmlns:svg="http://www.w3.org/2000/svg"
   xmlns="http://www.w3.org/2000/svg"
   xmlns:xlink="http://www.w3.org/1999/xlink"
   xmlns:sodipodi="http://sodipodi.sourceforge.net/DTD/sodipodi-0.dtd"
   xmlns:inkscape="http://www.inkscape.org/namespaces/inkscape"
   width="297mm"
   height="210mm"
   viewBox="0 0 1052.3622 744.09448"
   id="svg2"
   version="1.1"
   inkscape:version="0.92.2 2405546, 2018-03-11"
   sodipodi:docname="bkp-drawing.svg"
   inkscape:export-filename="C:\Users\Tiago\Desktop\drawing.png"
   inkscape:export-xdpi="223"
   inkscape:export-ydpi="223">
  <defs
     id="defs4">
    <inkscape:perspective
       sodipodi:type="inkscape:persp3d"
       inkscape:vp_x="127.27922 : 458.31427 : 1"
       inkscape:vp_y="0 : 1000 : 0"
       inkscape:vp_z="1179.6414 : 458.31427 : 1"
       inkscape:persp3d-origin="653.46032 : 334.29852 : 1"
       id="perspective4336" />
    <linearGradient
       id="linearGradient2795">
      <stop
         id="stop2797"
         offset="0"
         style="stop-color:#b8b8b8;stop-opacity:0.49803922;" />
      <stop
         id="stop2799"
         offset="1"
         style="stop-color:#7f7f7f;stop-opacity:0;" />
    </linearGradient>
    <linearGradient
       id="linearGradient2787">
      <stop
         id="stop2789"
         offset="0"
         style="stop-color:#7f7f7f;stop-opacity:0.5;" />
      <stop
         id="stop2791"
         offset="1"
         style="stop-color:#7f7f7f;stop-opacity:0;" />
    </linearGradient>
    <linearGradient
       id="linearGradient3676">
      <stop
         id="stop3678"
         offset="0"
         style="stop-color:#b2b2b2;stop-opacity:0.5;" />
      <stop
         id="stop3680"
         offset="1"
         style="stop-color:#b3b3b3;stop-opacity:0;" />
    </linearGradient>
    <linearGradient
       id="linearGradient3236">
      <stop
         id="stop3244"
         offset="0"
         style="stop-color:#f4f4f4;stop-opacity:1" />
      <stop
         id="stop3240"
         offset="1"
         style="stop-color:white;stop-opacity:1" />
    </linearGradient>
    <linearGradient
       id="linearGradient4671">
      <stop
         id="stop4673"
         offset="0"
         style="stop-color:#ffd43b;stop-opacity:1;" />
      <stop
         id="stop4675"
         offset="1"
         style="stop-color:#ffe873;stop-opacity:1" />
    </linearGradient>
    <linearGradient
       id="linearGradient4689">
      <stop
         id="stop4691"
         offset="0"
         style="stop-color:#5a9fd4;stop-opacity:1;" />
      <stop
         id="stop4693"
         offset="1"
         style="stop-color:#306998;stop-opacity:1;" />
    </linearGradient>
    <linearGradient
       gradientTransform="translate(100.2702,99.61116)"
       gradientUnits="userSpaceOnUse"
       xlink:href="#linearGradient4671"
       id="linearGradient2987"
       y2="144.75717"
       x2="-65.308502"
       y1="144.75717"
       x1="224.23996" />
    <linearGradient
       gradientTransform="translate(100.2702,99.61116)"
       gradientUnits="userSpaceOnUse"
       xlink:href="#linearGradient4689"
       id="linearGradient2990"
       y2="76.313133"
       x2="26.670298"
       y1="77.475983"
       x1="172.94208" />
    <linearGradient
       y2="144.75717"
       x2="-65.308502"
       y1="144.75717"
       x1="224.23996"
       gradientTransform="matrix(0.562541,0,0,0.567972,-11.5974,-7.60954)"
       gradientUnits="userSpaceOnUse"
       id="linearGradient2255"
       xlink:href="#linearGradient4671"
       inkscape:collect="always" />
    <linearGradient
       y2="76.313133"
       x2="26.670298"
       y1="76.176224"
       x1="172.94208"
       gradientTransform="matrix(0.562541,0,0,0.567972,-11.5974,-7.60954)"
       gradientUnits="userSpaceOnUse"
       id="linearGradient2258"
       xlink:href="#linearGradient4689"
       inkscape:collect="always" />
    <radialGradient
       gradientUnits="userSpaceOnUse"
       gradientTransform="matrix(1,0,0,0.177966,0,108.7434)"
       r="29.036913"
       fy="132.28575"
       fx="61.518883"
       cy="132.28575"
       cx="61.518883"
       id="radialGradient2801"
       xlink:href="#linearGradient2795"
       inkscape:collect="always" />
    <linearGradient
       y2="137.27299"
       x2="112.03144"
       y1="192.35176"
       x1="150.96111"
       gradientTransform="matrix(0.562541,0,0,0.567972,-9.399749,-5.305317)"
       gradientUnits="userSpaceOnUse"
       id="linearGradient1475"
       xlink:href="#linearGradient4671"
       inkscape:collect="always" />
    <linearGradient
       y2="114.39767"
       x2="135.66525"
       y1="20.603781"
       x1="26.648937"
       gradientTransform="matrix(0.562541,0,0,0.567972,-9.399749,-5.305317)"
       gradientUnits="userSpaceOnUse"
       id="linearGradient1478"
       xlink:href="#linearGradient4689"
       inkscape:collect="always" />
    <radialGradient
       r="29.036913"
       fy="132.28575"
       fx="61.518883"
       cy="132.28575"
       cx="61.518883"
       gradientTransform="matrix(2.382716e-8,-0.296405,1.43676,4.683673e-7,-128.544,150.5202)"
       gradientUnits="userSpaceOnUse"
       id="radialGradient1480"
       xlink:href="#linearGradient2795"
       inkscape:collect="always" />
  </defs>
  <sodipodi:namedview
     id="base"
     pagecolor="#ffffff"
     bordercolor="#666666"
     borderopacity="1.0"
     inkscape:pageopacity="0.0"
     inkscape:pageshadow="2"
     inkscape:zoom="0.70710678"
     inkscape:cx="481.46042"
     inkscape:cy="550.94348"
     inkscape:document-units="mm"
     inkscape:current-layer="layer1"
     showgrid="false"
     inkscape:window-width="1366"
     inkscape:window-height="711"
     inkscape:window-x="0"
     inkscape:window-y="31"
     inkscape:window-maximized="1"
     showguides="true"
     inkscape:guide-bbox="true" />
  <metadata
     id="metadata7">
    <rdf:RDF>
      <cc:Work
         rdf:about="">
        <dc:format>image/svg+xml</dc:format>
        <dc:type
           rdf:resource="http://purl.org/dc/dcmitype/StillImage" />
        <dc:title />
      </cc:Work>
    </rdf:RDF>
  </metadata>
  <g
     inkscape:label="Layer 1"
     inkscape:groupmode="layer"
     id="layer1"
     transform="translate(0,-308.26772)">
    <rect
       style="opacity:1;fill:#ffffff;fill-opacity:0.97647059;stroke:none;stroke-opacity:1"
       id="rect4209"
       width="1052.3622"
       height="744.09448"
       x="0"
       y="308.26773" />
    <g
       id="g3495"
       transform="matrix(9.5030649,0,0,9.5030649,-3716.8178,-4568.5766)"
       style="opacity:0.45">
      <path
         inkscape:export-ydpi="90"
         inkscape:export-xdpi="90"
         id="path3839-2"
         d="m 444.09624,603.73188 c -4.16991,-4.10915 -4.98774,-5.14393 -4.98774,-6.311 0,-1.21774 1.81886,-3.21813 14.24995,-15.67236 7.83749,-7.85203 14.24999,-14.56841 14.24999,-14.92525 0,-0.35691 -6.4125,-7.08278 -14.24999,-14.94641 -12.34687,-12.38807 -14.24995,-14.48163 -14.24995,-15.67593 0,-1.12511 0.87274,-2.28239 4.74852,-6.2968 3.88482,-4.02376 4.99043,-4.91835 6.07839,-4.91835 1.13901,0 4.1906,2.85352 21.26085,19.88102 10.962,10.93457 20.12412,20.36846 20.36021,20.96421 0.32641,0.82367 0.20976,1.42951 -0.48677,2.52823 -0.50381,0.79476 -9.66038,10.18474 -20.3479,20.86668 -14.805,14.79719 -19.69453,19.42156 -20.53486,19.42134 -0.7842,0 -2.54447,-1.42085 -6.0907,-4.91538 z"
         style="fill:#fed847;fill-opacity:1;stroke:none;stroke-width:10;stroke-linejoin:round;stroke-miterlimit:4;stroke-dasharray:none;stroke-opacity:1"
         inkscape:connector-curvature="0" />
      <path
         inkscape:export-ydpi="90"
         inkscape:export-xdpi="90"
         id="path3821-9"
         d="m 421.80848,560.31361 c -11.22902,-11.21849 -20.39738,-20.73957 -20.5029,-21.29163 -0.105,-0.54921 -0.0716,-1.33181 0.0742,-1.73905 0.1458,-0.40723 9.32958,-9.8566 20.40841,-20.99861 18.17438,-18.27801 20.28695,-20.25817 21.61266,-20.25817 1.25754,0 2.19145,0.72437 6.4796,5.02588 4.23538,4.2486 5.0103,5.24828 5.0103,6.46405 0,1.27349 -1.64704,3.08829 -14.37978,15.84468 -7.90891,7.92357 -14.30418,14.62427 -14.2117,14.89043 0.0925,0.26614 6.2865,6.64705 13.76449,14.17977 7.47801,7.53275 13.95934,14.25459 14.40301,14.93749 0.44364,0.68288 0.68437,1.62685 0.53496,2.09765 -0.14945,0.47083 -2.6171,3.17008 -5.48365,5.99831 -3.69576,3.64632 -5.52987,5.14225 -6.30478,5.14225 -0.82738,0 -6.0261,-4.92866 -21.4048,-20.29305 z"
         style="fill:#306a98;fill-opacity:1;stroke:none;stroke-width:10;stroke-linejoin:round;stroke-miterlimit:4;stroke-dasharray:none;stroke-opacity:1"
         inkscape:connector-curvature="0" />
    </g>
    <flowRoot
       xml:space="preserve"
       id="flowRoot3336"
       style="font-style:normal;font-variant:normal;font-weight:normal;font-stretch:normal;line-height:0.01%;font-family:'Roboto Condensed';-inkscape-font-specification:'Roboto Condensed, ';letter-spacing:0px;word-spacing:0px;fill:#000000;fill-opacity:1;stroke:none;stroke-width:1px;stroke-linecap:butt;stroke-linejoin:miter;stroke-opacity:1"
       transform="matrix(1.5397511,0,0,1.5397511,-171.80308,316.6268)"><flowRegion
         id="flowRegion3338"><rect
           id="rect3340"
           width="567.14288"
           height="61.42857"
           x="162.85715"
           y="49.808769"
           style="font-style:normal;font-variant:normal;font-weight:normal;font-stretch:normal;font-family:'Roboto Condensed';-inkscape-font-specification:'Roboto Condensed, '" /></flowRegion><flowPara
         id="flowPara3342"
         style="font-style:normal;font-variant:normal;font-weight:bold;font-stretch:normal;font-size:40px;line-height:125%;font-family:'Roboto Condensed';-inkscape-font-specification:'Roboto Condensed, ';text-align:center;writing-mode:lr-tb;text-anchor:middle">Certificado de Participação</flowPara></flowRoot>    <flowRoot
       xml:space="preserve"
       id="flowRoot3344"
       style="font-style:normal;font-weight:normal;line-height:0.01%;font-family:sans-serif;text-align:center;letter-spacing:0px;word-spacing:0px;text-anchor:middle;fill:#000000;fill-opacity:1;stroke:none;stroke-width:1px;stroke-linecap:butt;stroke-linejoin:miter;stroke-opacity:1"><flowRegion
         id="flowRegion3346"><rect
           id="rect3348"
           width="1002.5955"
           height="168.13513"
           x="24.273626"
           y="706.97778"
           style="text-align:center;text-anchor:middle" /></flowRegion><flowPara
         id="flowPara3350"
         style="font-style:normal;font-variant:normal;font-weight:normal;font-stretch:normal;font-size:29.40698051px;line-height:1.25;font-family:'Roboto Condensed';-inkscape-font-specification:'Roboto Condensed, ';text-align:center;text-anchor:middle">Certificamos que <flowSpan
   style="-inkscape-font-specification:'Roboto Condensed,  Bold';font-family:'Roboto Condensed';font-weight:bold;font-style:normal;font-stretch:normal;font-variant:normal"
   id="flowSpan84">{name}</flowSpan> participou do Iº Seminário Python Sudeste 2016 realizado pela Associação Python Brasil nos dias 2 e 3 de setembro de 2016 com carga horária total de 16 (dezesseis) horas.</flowPara></flowRoot>    <g
       id="g3499">
      <path
         inkscape:export-ydpi="90"
         inkscape:export-xdpi="90"
         id="path3839"
         d="m 408.06085,644.56951 c -4.16991,-4.10915 -4.98774,-5.14393 -4.98774,-6.311 0,-1.21774 1.81886,-3.21813 14.24995,-15.67236 7.83749,-7.85203 14.24999,-14.56841 14.24999,-14.92525 0,-0.35691 -6.4125,-7.08278 -14.24999,-14.94641 -12.34687,-12.38807 -14.24995,-14.48163 -14.24995,-15.67593 0,-1.12511 0.87274,-2.28239 4.74852,-6.2968 3.88482,-4.02376 4.99043,-4.91835 6.07839,-4.91835 1.13901,0 4.1906,2.85352 21.26085,19.88102 10.962,10.93457 20.12412,20.36846 20.36021,20.96421 0.32641,0.82367 0.20976,1.42951 -0.48677,2.52823 -0.50381,0.79476 -9.66038,10.18474 -20.3479,20.86668 -14.805,14.79719 -19.69453,19.42156 -20.53486,19.42134 -0.7842,0 -2.54447,-1.42085 -6.0907,-4.91538 z"
         style="fill:#fed847;fill-opacity:1;stroke:none;stroke-width:10;stroke-linejoin:round;stroke-miterlimit:4;stroke-dasharray:none;stroke-opacity:1"
         inkscape:connector-curvature="0" />
      <path
         inkscape:export-ydpi="90"
         inkscape:export-xdpi="90"
         sodipodi:nodetypes="cscssssssscssssscssscscssscssscscssssscsssccc"
         inkscape:connector-curvature="0"
         id="path3837"
         d="m 468.80685,630.36935 c -1.77245,-0.29662 -3.3411,-0.61381 -4.52985,-0.90796 -1.18874,-0.29415 -1.99758,-0.56526 -2.25037,-0.76974 -0.33253,-0.26898 -0.53914,-2.42559 -0.58083,-4.51494 -0.0417,-2.08935 0.0815,-4.11147 0.40871,-4.11147 0.11067,0 0.51508,0.13539 1.07746,0.35353 0.56239,0.21815 1.28277,0.51903 2.02537,0.84999 0.76062,0.33901 1.74507,0.66559 2.73893,0.92398 0.99386,0.25839 1.99713,0.44861 2.79545,0.51488 1.29697,0.10768 2.03066,0.14134 2.57603,0.0121 0.54537,-0.12921 0.90243,-0.42124 1.44615,-0.96495 0.32671,-0.32674 0.62374,-0.6967 0.83907,-1.02958 0.21536,-0.33287 0.34902,-0.62863 0.34902,-0.80694 0,-0.67262 -0.48044,-1.42302 -1.33697,-2.16126 -0.85653,-0.73823 -2.08917,-1.4643 -3.59355,-2.08828 -3.23807,-1.34307 -5.53061,-2.70593 -7.07035,-4.28642 -1.53974,-1.5805 -2.32667,-3.37861 -2.55347,-5.59216 -0.19468,-1.89953 -0.0773,-3.46746 0.41057,-4.87237 0.48789,-1.40489 1.34633,-2.64675 2.63387,-3.89415 1.21119,-1.17344 2.46059,-2.02421 3.96267,-2.64024 1.50206,-0.61605 3.25681,-0.99739 5.47869,-1.23194 1.23999,-0.13092 3.58589,-0.0377 5.83168,0.16885 2.24577,0.20653 4.39142,0.5263 5.2309,0.84842 0.25203,0.0967 0.41682,0.40042 0.5186,1.07071 0.10178,0.67028 0.14056,1.70714 0.14056,3.27016 0,1.12419 -0.0388,2.14446 -0.10127,2.88269 -0.0625,0.73821 -0.14867,1.19435 -0.24346,1.19022 -0.0948,-0.004 -0.46543,-0.10804 -0.98615,-0.27192 -0.52073,-0.16389 -1.19157,-0.38786 -1.88684,-0.63243 -1.55589,-0.54732 -3.3612,-0.84523 -4.95383,-0.88282 -1.59263,-0.0376 -2.97259,0.18512 -3.67778,0.67905 -0.67363,0.47183 -1.0089,1.21606 -1.00657,1.99292 0.002,0.77688 0.34229,1.5864 1.01914,2.18882 0.28441,0.25312 0.98257,0.69084 1.87822,1.19213 0.89566,0.5013 1.98882,1.06617 3.06331,1.57362 3.52723,1.66583 5.76288,3.12116 7.08141,4.85971 1.31853,1.73856 1.7199,3.76035 1.57857,6.55909 -0.0679,1.34438 -0.16812,2.25485 -0.37851,3.0113 -0.21041,0.75643 -0.531,1.35886 -1.03963,2.08711 -0.75915,1.08703 -1.68826,2.01678 -2.77179,2.77839 -1.08355,0.7616 -2.32154,1.35504 -3.69846,1.76943 -1.10327,0.33202 -3.23599,0.63188 -5.32964,0.80911 -2.09366,0.17723 -4.14822,0.23182 -5.09516,0.0733 l 5e-5,0 z"
         style="fill:#fed847;fill-opacity:1;stroke:none;stroke-width:10;stroke-linejoin:round;stroke-miterlimit:4;stroke-dasharray:none;stroke-opacity:1" />
      <path
         inkscape:export-ydpi="90"
         inkscape:export-xdpi="90"
         sodipodi:nodetypes="sscsscccccccssssssscccccccsssssss"
         inkscape:connector-curvature="0"
         id="path3835"
         d="m 503.76081,630.13581 c -2.52603,-0.44038 -4.80389,-1.52411 -6.64374,-3.08958 -1.83984,-1.56548 -3.24162,-3.6127 -4.01548,-5.98014 -0.17773,-0.54374 -0.33208,-2.10508 -0.45663,-4.55752 -0.12454,-2.45246 -0.21929,-5.79603 -0.27781,-9.90423 l -0.091,-6.38568 -0.091,-6.38569 2.60196,0.0651 2.60198,0.0651 2.60194,0.0652 2.60196,0.0652 0.11491,5.97581 0.11493,5.97579 c 0.12022,6.25121 0.21121,9.56547 0.52716,11.49557 0.31598,1.93007 0.85693,2.47598 1.87707,3.1905 1.09557,0.76735 2.59749,0.92758 3.9946,0.60039 1.3971,-0.3272 2.68939,-1.14181 3.36573,-2.32417 0.20276,-0.35446 0.36445,-1.49939 0.49561,-3.60352 0.13116,-2.10414 0.2318,-5.16747 0.3124,-9.35877 l 0.11491,-5.97579 0.11493,-5.97581 2.60194,-0.0652 2.60195,-0.0652 2.60198,-0.0651 2.60197,-0.0651 -0.08,6.38569 -0.08,6.38568 c -0.0758,6.05539 -0.12974,9.28311 -0.29205,11.31654 -0.16229,2.03342 -0.433,2.87254 -0.9425,4.15077 -1.02822,2.57959 -2.56314,4.52156 -4.68863,5.87944 -2.12549,1.35788 -4.84153,2.13168 -8.23196,2.37491 -0.94808,0.068 -2.09232,0.0806 -3.17206,0.0462 -1.07977,-0.0345 -2.09503,-0.11602 -2.78519,-0.23635 z"
         style="fill:#fed847;fill-opacity:1;stroke:none;stroke-width:10;stroke-linejoin:round;stroke-miterlimit:4;stroke-dasharray:none;stroke-opacity:1" />
      <path
         inkscape:export-ydpi="90"
         inkscape:export-xdpi="90"
         sodipodi:nodetypes="cscssssssssssscssssscssscscsssssssssc"
         inkscape:connector-curvature="0"
         id="path3833"
         d="m 606.70984,630.34483 c -1.49866,-0.21883 -3.06401,-0.5272 -4.31955,-0.83331 -1.25553,-0.30614 -2.20127,-0.61002 -2.46069,-0.81987 -0.27928,-0.22591 -0.49618,-2.27093 -0.57832,-4.32445 -0.0821,-2.05351 -0.0295,-4.1155 0.23038,-4.37536 0.0623,-0.0623 0.43718,0.0337 0.99092,0.23872 0.55375,0.20499 1.28636,0.51887 2.0642,0.89219 1.94043,0.93132 3.92515,1.48029 5.64541,1.62155 1.72028,0.14128 3.17607,-0.12516 4.05869,-0.82464 0.34762,-0.2755 0.66365,-0.62961 0.89278,-0.97818 0.22912,-0.34857 0.37133,-0.69161 0.37133,-0.94497 0,-0.72134 -0.56484,-1.55704 -1.52531,-2.36478 -0.96046,-0.80773 -2.31654,-1.58751 -3.89903,-2.19701 -2.80912,-1.08193 -4.97825,-2.44603 -6.5074,-4.09224 -1.52915,-1.64622 -2.4183,-3.57456 -2.66744,-5.78499 -0.18283,-1.62173 -0.0124,-3.14523 0.51121,-4.57092 0.52367,-1.42569 1.40066,-2.75355 2.6311,-3.98398 1.16534,-1.16534 2.35995,-1.99555 3.85515,-2.60044 1.49521,-0.60487 3.291,-0.98443 5.65872,-1.24839 1.1857,-0.13219 3.50367,-0.0382 5.73334,0.16874 2.22968,0.20692 4.37108,0.52676 5.20369,0.84625 0.25204,0.0967 0.41683,0.40043 0.51861,1.07071 0.1018,0.67027 0.14057,1.70714 0.14057,3.27016 0,1.12417 -0.0129,2.14549 -0.0338,2.88535 -0.0208,0.73985 -0.0495,1.19826 -0.0811,1.19665 -0.0316,-0.002 -0.38815,-0.10612 -0.93713,-0.2727 -0.54897,-0.16657 -1.29039,-0.39547 -2.09174,-0.64665 -2.78733,-0.87374 -5.21912,-1.11347 -6.95408,-0.78397 -1.73495,0.32948 -2.77307,1.22817 -2.77307,2.63128 0,0.79065 0.42234,1.53659 1.32303,2.28429 0.90069,0.7477 2.27972,1.49717 4.19309,2.29487 3.64207,1.51841 6.2403,3.40673 7.77374,5.63464 1.53345,2.2279 2.00214,4.79537 1.38519,7.67209 -0.34354,1.60187 -0.99871,3.02015 -1.93576,4.21692 -0.93707,1.19676 -2.15607,2.17199 -3.62722,2.88778 -1.63975,0.79781 -3.86536,1.39834 -6.16691,1.72851 -2.30156,0.33015 -4.67906,0.38991 -6.62258,0.10615 z"
         style="fill:#fed847;fill-opacity:1;stroke:none;stroke-width:10;stroke-linejoin:round;stroke-miterlimit:4;stroke-dasharray:none;stroke-opacity:1" />
      <path
         inkscape:export-ydpi="90"
         inkscape:export-xdpi="90"
         id="path3831"
         d="m 544.62337,593.92294 c -1.10218,0 -2.31179,0.0122 -3.64715,0.0319 l -4.71182,0.0695 -4.71183,0.0691 -0.0602,8.61836 -0.0602,8.61807 c -0.0332,4.73997 -0.037,9.11731 -0.0166,12.35156 0.0204,3.23423 0.0649,5.32538 0.12906,5.49255 0.0931,0.24273 0.66645,0.38655 2.23768,0.45412 1.57123,0.0675 4.14046,0.0586 8.22577,-0.004 4.6812,-0.0723 7.29417,-0.13384 9.0368,-0.29732 1.7426,-0.16347 2.61481,-0.42886 3.81412,-0.9082 1.8307,-0.73165 3.55678,-1.86286 5.05439,-3.27685 1.49761,-1.41401 2.76686,-3.11059 3.68381,-4.97314 0.67923,-1.37976 1.05916,-2.26231 1.28836,-3.35335 0.22922,-1.09103 0.30759,-2.39069 0.38337,-4.60507 0.13983,-4.0856 -0.32275,-7.3337 -1.46429,-9.91693 -1.14153,-2.58323 -2.96203,-4.50146 -5.53748,-5.92754 -1.98687,-1.10018 -3.63885,-1.7423 -6.12958,-2.0895 -1.86803,-0.2604 -4.20763,-0.35492 -7.51419,-0.35277 z m 0.16316,7.7825 c 1.38602,0.005 3.06314,0.29636 4.25294,0.83682 3.81879,1.7346 5.52101,5.12866 5.15286,10.27385 -0.26015,3.63568 -1.75391,6.31408 -4.37627,7.84561 l 0,0 c -1.88951,1.10355 -6.54007,1.56814 -7.34594,0.73388 -0.79968,-0.82804 -0.82055,-18.36801 -0.0226,-19.16595 0.35945,-0.35947 1.26131,-0.52824 2.33933,-0.52421 z"
         style="fill:#fed847;fill-opacity:1;stroke:none;stroke-width:10;stroke-linejoin:round;stroke-miterlimit:4;stroke-dasharray:none;stroke-opacity:1"
         inkscape:connector-curvature="0" />
      <path
         inkscape:export-ydpi="90"
         inkscape:export-xdpi="90"
         sodipodi:nodetypes="csscccccccccccsssccccccccccccccccsscccccccssc"
         inkscape:connector-curvature="0"
         id="path3827"
         d="m 571.52751,629.1503 c -0.0616,-0.16068 -0.10412,-2.24584 -0.12288,-5.47581 -0.0188,-3.22997 -0.0139,-7.60475 0.0193,-12.34472 l 0.0603,-8.61812 0.0603,-8.61813 5.51613,0 5.51612,0 5.51611,0 5.51612,0 0,1.83871 0,1.83871 0,1.83871 0,1.83869 -2.4133,0.0568 -2.4133,0.0568 c -3.56861,0.084 -5.3104,0.10589 -6.1395,0.49996 -0.82909,0.39408 -0.74549,1.16038 -0.66324,2.73344 l 0.0687,1.31437 0.0687,1.31436 2.70943,0.0648 2.70945,0.0648 2.70942,0.0648 2.70943,0.0648 -0.0663,2.00372 -0.0663,2.00371 -0.0663,2.00371 -0.0663,2.00371 -2.64314,0.11492 -2.64313,0.11491 -2.64314,0.11493 -2.64314,0.11491 -0.0687,1.31436 -0.0687,1.31437 c -0.0828,1.58307 -0.17782,2.35072 0.70315,2.74301 0.88097,0.39232 2.73797,0.40929 6.55926,0.49101 l 2.64314,0.0565 2.64316,0.0565 0,1.83871 0,1.83871 0,1.83871 0,1.83869 -5.6942,0.0615 -5.69418,0.0615 c -4.43895,0.0479 -7.29838,0.0465 -9.06991,-0.0239 -1.77156,-0.0704 -2.45522,-0.20968 -2.54262,-0.43738 z"
         style="fill:#fed847;fill-opacity:1;stroke:none;stroke-width:10;stroke-linejoin:round;stroke-miterlimit:4;stroke-dasharray:none;stroke-opacity:1" />
      <path
         inkscape:export-ydpi="90"
         inkscape:export-xdpi="90"
         sodipodi:nodetypes="sscssccccccccccccccccsccccccccccccs"
         inkscape:connector-curvature="0"
         id="path3825"
         d="m 637.96786,615.97732 c 0,-6.05303 -0.0216,-9.49659 -0.12333,-11.45765 -0.1017,-1.96104 -0.28347,-2.43955 -0.60378,-2.56248 -0.19995,-0.0767 -0.86879,-0.14648 -1.78526,-0.19706 -0.91649,-0.0506 -2.08063,-0.082 -3.27119,-0.082 l -2.16467,0 -2.16467,0 0,-1.95667 0,-1.95667 0,-1.95669 0,-1.95669 7.75702,0.0605 7.75705,0.0605 7.75705,0.0605 7.75705,0.0605 0,1.83871 0,1.83871 0,1.83869 0,1.83871 -2.06854,0.0574 -2.06853,0.0574 c -1.13772,0.0316 -2.28834,0.0871 -3.22565,0.15122 -0.93731,0.0641 -1.66129,0.13666 -1.94572,0.20231 l -0.51715,0.11932 -0.51713,0.11934 0,6.89076 0,6.89078 0,6.89076 0,6.89078 -2.64314,0 -2.64313,0 -2.64314,0 -2.64314,0 0,-6.87056 z"
         style="fill:#fed847;fill-opacity:1;stroke:none;stroke-width:10;stroke-linejoin:round;stroke-miterlimit:4;stroke-dasharray:none;stroke-opacity:1" />
      <path
         inkscape:export-ydpi="90"
         inkscape:export-xdpi="90"
         sodipodi:nodetypes="ccccccccccccssssscccccccsscsscccccccccccc"
         inkscape:connector-curvature="0"
         id="path3823"
         d="m 664.16942,611.79107 0,-8.96369 0,-8.9637 5.5161,0 5.51614,0 5.51612,0 5.51612,0 0,1.95362 0,1.95364 0,1.95362 0,1.95362 -2.74997,0 -2.74998,0 c -3.06658,0 -4.6795,0.041 -5.52576,0.47724 -0.84626,0.4362 -0.92588,1.26755 -0.92588,2.84818 0,1.20541 0.13751,1.86801 0.96697,2.22924 0.82946,0.36125 2.35087,0.42113 5.11864,0.42113 l 2.49122,0 2.49123,0 -0.0664,2.0111 -0.0664,2.01108 -0.0664,2.01109 -0.0664,2.01108 -2.51978,0.0657 -2.51977,0.0657 c -2.73627,0.0714 -4.17233,0.13977 -4.9258,0.5026 -0.75344,0.36283 -0.82427,1.02008 -0.83005,2.26912 -0.007,1.58431 0.0589,2.40993 0.95696,2.83946 0.89802,0.42953 2.62778,0.46299 5.94737,0.46299 l 2.9798,0 2.97981,0 0,1.95362 0,1.95362 0,1.95362 0,1.95362 -5.74597,0 -5.74596,0 -5.74596,0 -5.74595,0 0,-8.96368 z"
         style="fill:#fed847;fill-opacity:1;stroke:none;stroke-width:10;stroke-linejoin:round;stroke-miterlimit:4;stroke-dasharray:none;stroke-opacity:1" />
      <path
         inkscape:export-ydpi="90"
         inkscape:export-xdpi="90"
         id="path3821"
         d="m 385.77309,601.15124 c -11.22902,-11.21849 -20.39738,-20.73957 -20.5029,-21.29163 -0.105,-0.54921 -0.0716,-1.33181 0.0742,-1.73905 0.1458,-0.40723 9.32958,-9.8566 20.40841,-20.99861 18.17438,-18.27801 20.28695,-20.25817 21.61266,-20.25817 1.25754,0 2.19145,0.72437 6.4796,5.02588 4.23538,4.2486 5.0103,5.24828 5.0103,6.46405 0,1.27349 -1.64704,3.08829 -14.37978,15.84468 -7.90891,7.92357 -14.30418,14.62427 -14.2117,14.89043 0.0925,0.26614 6.2865,6.64705 13.76449,14.17977 7.47801,7.53275 13.95934,14.25459 14.40301,14.93749 0.44364,0.68288 0.68437,1.62685 0.53496,2.09765 -0.14945,0.47083 -2.6171,3.17008 -5.48365,5.99831 -3.69576,3.64632 -5.52987,5.14225 -6.30478,5.14225 -0.82738,0 -6.0261,-4.92866 -21.4048,-20.29305 z"
         style="fill:#306a98;fill-opacity:1;stroke:none;stroke-width:10;stroke-linejoin:round;stroke-miterlimit:4;stroke-dasharray:none;stroke-opacity:1"
         inkscape:connector-curvature="0" />
      <path
         inkscape:export-ydpi="90"
         inkscape:export-xdpi="90"
         id="path3811"
         d="m 618.20187,540.32969 c -6.72599,0 -9.50312,0.83834 -13.48858,4.07131 -7.74671,6.28408 -10.17936,18.30947 -5.59709,27.66961 2.6149,5.34145 8.15275,9.55937 14.07876,10.72316 9.636,1.89241 19.6373,-2.82658 23.54732,-11.11066 1.63509,-3.46433 2.3108,-7.5245 2.02927,-12.19574 -0.52203,-8.6641 -4.92342,-15.1562 -12.29548,-18.13571 -2.14425,-0.86666 -3.40086,-1.02197 -8.2742,-1.02197 z m -0.44168,10.53261 c 0.86863,-0.005 1.78022,0.17644 2.71472,0.56373 1.75958,0.72923 2.2876,1.2741 3.46394,3.57418 1.227,2.39929 1.38709,3.17036 1.38269,6.65347 -0.006,4.55204 -1.16425,7.60393 -3.52382,9.28406 -1.90039,1.35322 -4.79512,1.58369 -6.80451,0.54173 -2.92576,-1.5171 -4.59876,-5.08724 -4.60349,-9.82452 -0.006,-6.42635 3.18527,-10.76933 7.37047,-10.79265 z"
         clip-path="none"
         style="fill:#306a98;fill-opacity:1;stroke:none;stroke-width:10;stroke-linejoin:round;stroke-miterlimit:4;stroke-dasharray:none;stroke-opacity:1"
         inkscape:connector-curvature="0" />
      <path
         inkscape:export-ydpi="90"
         inkscape:export-xdpi="90"
         id="path3803"
         d="m 444.66429,540.51962 c -4.36097,0.0216 -8.03735,0.20801 -8.40262,0.57329 -0.4118,0.41184 -0.55162,5.5279 -0.55162,20.18792 0,10.80008 0.12773,19.96988 0.28394,20.37689 0.2447,0.63759 1.11959,0.72234 6.32076,0.61217 l 6.03653,-0.12811 0.22976,-6.43549 0.22976,-6.4355 4.59678,-0.29285 c 5.6846,-0.36246 9.02914,-1.55682 12.10619,-4.32338 3.87505,-3.48398 5.39173,-8.54921 4.23223,-14.1345 -1.03856,-5.00265 -4.43375,-8.02497 -10.44688,-9.29905 -2.28896,-0.48501 -9.02786,-0.72921 -14.63483,-0.70139 z m 5.57987,9.22417 c 0.45037,0.003 1.02261,0.0825 1.74949,0.19151 2.94618,0.44182 4.40207,2.05987 4.40207,4.89283 0,1.65186 -0.27063,2.52479 -1.07136,3.45564 -0.85805,0.99754 -1.56741,1.28596 -3.5627,1.44897 -1.37017,0.11194 -2.64622,0.0457 -2.83583,-0.14722 -0.18961,-0.19295 -0.34479,-2.39147 -0.34479,-4.8855 0,-4.01395 0.0547,-4.96832 1.66312,-4.95623 z"
         style="fill:#306a98;fill-opacity:1;stroke:none;stroke-width:10;stroke-linejoin:round;stroke-miterlimit:4;stroke-dasharray:none;stroke-opacity:1"
         inkscape:connector-curvature="0" />
      <path
         inkscape:export-ydpi="90"
         inkscape:export-xdpi="90"
         id="path3799"
         d="m 483.83565,582.07802 c -0.17552,-0.17556 -0.31915,-3.42376 -0.31915,-7.21826 l 0,-6.89908 -6.22093,-13.26923 c -3.42156,-7.29803 -6.09846,-13.46744 -5.94869,-13.70975 0.15327,-0.248 3.16908,-0.44054 6.89988,-0.44054 6.3759,0 6.652,0.0393 7.27117,1.03427 0.35395,0.56885 1.62707,3.98194 2.82914,7.58466 1.20205,3.60272 2.32563,6.55038 2.49682,6.55038 0.17122,0 1.43685,-3.36138 2.81248,-7.46974 l 2.50123,-7.46975 6.16876,-0.12881 c 3.57533,-0.0747 6.35702,0.0595 6.61654,0.31899 0.29055,0.2905 -1.79454,5.01598 -5.93895,13.45939 l -6.38667,13.01168 -0.22984,7.35483 -0.22984,7.35482 -6.00139,0.12765 c -3.30073,0.0702 -6.145,-0.0158 -6.32056,-0.19151 z"
         style="fill:#306a98;fill-opacity:1;stroke:none;stroke-width:10;stroke-linejoin:round;stroke-miterlimit:4;stroke-dasharray:none;stroke-opacity:1"
         inkscape:connector-curvature="0" />
      <path
         inkscape:export-ydpi="90"
         inkscape:export-xdpi="90"
         id="path3797"
         d="m 522.12934,567.23998 c 0,-8.32244 -0.12555,-15.45894 -0.27902,-15.85885 -0.23145,-0.6031 -1.15651,-0.7271 -5.42418,-0.7271 -3.38891,0 -5.33345,-0.18828 -5.69679,-0.5516 -0.80729,-0.80731 -0.74314,-8.37043 0.0768,-9.05088 0.45004,-0.37352 5.57109,-0.48739 18.0423,-0.40107 l 17.41387,0.1205 0,4.82661 0,4.8266 -5.63103,0.12907 -5.63104,0.12906 0,15.11758 c 0,8.31467 -0.12555,15.4448 -0.279,15.84472 -0.23521,0.61295 -1.24566,0.72711 -6.43547,0.72711 l -6.15647,0 0,-15.13175 z"
         style="fill:#306a98;fill-opacity:1;stroke:none;stroke-width:10;stroke-linejoin:round;stroke-miterlimit:4;stroke-dasharray:none;stroke-opacity:1"
         inkscape:connector-curvature="0" />
      <path
         inkscape:export-ydpi="90"
         inkscape:export-xdpi="90"
         id="path3795"
         d="m 551.65888,561.57135 0.1196,-20.80037 5.97579,0 5.97579,0 0.12736,7.09285 c 0.0783,4.36386 0.32498,7.331 0.64101,7.71181 0.39584,0.47696 2.00114,0.58977 6.99765,0.49181 l 6.48398,-0.12714 0.12734,-7.09283 c 0.0784,-4.37107 0.32479,-7.33075 0.6418,-7.71282 0.39295,-0.47343 1.88402,-0.58968 6.30818,-0.49182 l 5.79362,0.12814 0,20.68546 0,20.68544 -6.07861,0.12817 c -7.22121,0.15228 -6.51842,1.06038 -6.68073,-8.63219 l -0.1116,-6.6653 -6.37238,-0.12822 c -4.30691,-0.0867 -6.579,0.0433 -7.01006,0.40104 -0.49484,0.4107 -0.63771,2.16437 -0.63771,7.82783 l 0,7.29852 -6.21031,0 -6.21034,0 0.11962,-20.80038 z"
         style="fill:#306a98;fill-opacity:1;stroke:none;stroke-width:10;stroke-linejoin:round;stroke-miterlimit:4;stroke-dasharray:none;stroke-opacity:1"
         inkscape:connector-curvature="0" />
      <path
         inkscape:export-ydpi="90"
         inkscape:export-xdpi="90"
         id="path3556-3"
         d="m 644.97323,561.57135 0.1196,-20.80037 5.58445,-0.1287 c 4.52929,-0.10437 5.71769,0.004 6.2896,0.57651 0.38786,0.38786 4.06004,5.2652 8.16051,10.83855 4.10042,5.57337 7.62677,9.96193 7.83638,9.75235 0.20957,-0.20961 0.43684,-5.02905 0.50507,-10.70988 l 0.12395,-10.32883 5.51612,0 5.51611,0 0.11962,20.80037 0.1196,20.80038 -5.44069,0 c -5.06183,0 -5.50502,-0.072 -6.36492,-1.03427 -0.50842,-0.56887 -4.28579,-5.63678 -8.39422,-11.26209 -4.10844,-5.62529 -7.65878,-10.2278 -7.88968,-10.2278 -0.24187,0 -0.41981,4.77349 -0.41981,11.26207 l 0,11.26209 -5.75065,0 -5.75064,0 0.1196,-20.80038 z"
         style="fill:#306a98;fill-opacity:1;stroke:none;stroke-width:10;stroke-linejoin:round;stroke-miterlimit:4;stroke-dasharray:none;stroke-opacity:1"
         inkscape:connector-curvature="0" />
    </g>
    <g
       id="g4298">
      <g
         transform="matrix(0.50941166,0,0,0.50941166,192.24844,241.3867)"
         id="g4229">
        <g
           id="g4386"
           transform="translate(289.35873,1336.7826)">
          <path
             d="m 184.61344,61.929363 c 0,-14.56215 -4.15226,-22.03817 -12.45678,-22.44755 -3.30427,-0.15595 -6.53055,0.37039 -9.66912,1.58878 -2.505,0.89673 -4.19124,1.78372 -5.07823,2.68045 l 0,34.75812 c 5.31216,3.33351 10.02976,4.88329 14.14303,4.63962 8.70415,-0.57508 13.0611,-7.64172 13.0611,-21.21942 z m 10.24419,0.60432 c 0,7.39804 -1.73498,13.53871 -5.22444,18.422 -3.88909,5.5266 -9.27923,8.37275 -16.17042,8.52871 -5.1952,0.1657 -10.54635,-1.46207 -16.05346,-4.87355 l 0,31.590317 -8.90884,-3.17755 0,-70.120567 c 1.46206,-1.79346 3.34325,-3.3335 5.62407,-4.63961 5.30242,-3.08983 11.74524,-4.67861 19.32848,-4.75658 l 0.12671,0.12671 c 6.93018,-0.08773 12.27159,2.75843 16.02422,8.5287 3.4992,5.29267 5.25368,12.07665 5.25368,20.37142 z"
             style="fill:#646464;fill-opacity:1"
             id="path46"
             inkscape:connector-curvature="0" />
          <path
             d="m 249.30487,83.265743 c 0,9.92254 -0.9942,16.794237 -2.9826,20.615097 -1.99816,3.82086 -5.79952,6.8717 -11.41385,9.14277 -4.55189,1.79346 -9.47417,2.76817 -14.75709,2.93387 l -1.47181,-5.61432 c 5.37064,-0.73103 9.15252,-1.46207 11.34561,-2.1931 4.31796,-1.46206 7.28108,-3.70389 8.90884,-6.706 1.30611,-2.446517 1.94942,-7.115367 1.94942,-14.026057 l 0,-2.3198 c -6.09193,2.76817 -12.47628,4.14251 -19.15303,4.14251 -4.38619,0 -8.25579,-1.37434 -11.58929,-4.14251 -3.74289,-3.01186 -5.61433,-6.83272 -5.61433,-11.46258 l 0,-37.07793 8.90884,-3.05084 0,37.3216 c 0,3.98656 1.28662,7.0569 3.85985,9.21101 2.57323,2.1541 5.90674,3.18729 9.99077,3.10932 4.08403,-0.08773 8.46047,-1.66676 13.10983,-4.75658 l 0,-43.54025 8.90884,0 0,48.41379 z"
             style="fill:#646464;fill-opacity:1"
             id="path48"
             inkscape:connector-curvature="0" />
          <path
             d="m 284.08249,88.997033 c -1.06243,0.08772 -2.03714,0.12671 -2.93387,0.12671 -5.03925,0 -8.96733,-1.19889 -11.77449,-3.60642 -2.79742,-2.40753 -4.20099,-5.73129 -4.20099,-9.97127 l 0,-35.08953 -6.10168,0 0,-5.60457 6.10168,0 0,-14.88381 8.89909,-3.16781 0,18.05162 10.01026,0 0,5.60457 -10.01026,0 0,34.84585 c 0,3.34325 0.89673,5.71179 2.6902,7.09588 1.54004,1.14041 3.98656,1.79347 7.32006,1.95917 l 0,4.63961 z"
             style="fill:#646464;fill-opacity:1"
             id="path50"
             inkscape:connector-curvature="0" />
          <path
             d="m 338.02288,88.266003 -8.90884,0 0,-34.38773 c 0,-3.49921 -0.81876,-6.51106 -2.44651,-9.02581 -1.88119,-2.84615 -4.49342,-4.26923 -7.84641,-4.26923 -4.08404,0 -9.19152,2.15411 -15.32242,6.46233 l 0,41.22044 -8.90885,0 0,-82.1972101 8.90885,-2.80716 0,37.4385701 c 5.6923,-4.14251 11.91093,-6.21864 18.66566,-6.21864 4.7176,0 8.53846,1.58877 11.46258,4.75658 2.93388,3.1678 4.39594,7.11537 4.39594,11.83296 l 0,37.1949 0,0 z"
             style="fill:#646464;fill-opacity:1"
             id="path52"
             inkscape:connector-curvature="0" />
          <path
             d="m 385.37424,60.525783 c 0,-5.59483 -1.06242,-10.21495 -3.17755,-13.87011 -2.51474,-4.45442 -6.42332,-6.80347 -11.70625,-7.04715 -9.76658,0.56534 -14.64012,7.56375 -14.64012,20.97574 0,6.15042 1.01369,11.28713 3.06057,15.41015 2.61223,5.25368 6.53056,7.84641 11.755,7.75869 9.80557,-0.07798 14.70835,-7.81717 14.70835,-23.22732 z m 9.75685,0.05848 c 0,7.96338 -2.03714,14.5914 -6.10168,19.88407 -4.47391,5.92623 -10.65357,8.89909 -18.53897,8.89909 -7.81716,0 -13.90909,-2.97286 -18.30503,-8.89909 -3.98656,-5.29267 -5.97497,-11.92069 -5.97497,-19.88407 0,-7.48576 2.15411,-13.78238 6.46232,-18.90935 4.5519,-5.43888 10.53661,-8.16806 17.93464,-8.16806 7.39805,0 13.42174,2.72918 18.06137,8.16806 4.3082,5.12697 6.46232,11.42359 6.46232,18.90935 z"
             style="fill:#646464;fill-opacity:1"
             id="path54"
             inkscape:connector-curvature="0" />
          <path
             d="m 446.20583,88.266003 -8.90884,0 0,-36.33715 c 0,-3.98656 -1.19889,-7.09588 -3.59667,-9.33772 -2.39779,-2.23208 -5.59483,-3.31401 -9.58139,-3.22628 -4.23023,0.07798 -8.25579,1.46206 -12.07664,4.14251 l 0,44.75864 -8.90884,0 0,-45.86006 c 5.12697,-3.73313 9.84456,-6.16991 14.15276,-7.31032 4.06455,-1.06243 7.65148,-1.58877 10.74131,-1.58877 2.11512,0 4.10352,0.20469 5.97496,0.61406 3.49921,0.80901 6.34535,2.31006 8.53845,4.51291 2.44651,2.43677 3.6649,5.3609 3.6649,8.78212 l 0,40.85006 z"
             style="fill:#646464;fill-opacity:1"
             id="path56"
             inkscape:connector-curvature="0" />
          <path
             id="path1948"
             d="m 60.510156,6.3979729 c -4.583653,0.021298 -8.960939,0.4122177 -12.8125,1.09375 C 36.35144,9.4962267 34.291407,13.691825 34.291406,21.429223 l 0,10.21875 26.8125,0 0,3.40625 -26.8125,0 -10.0625,0 c -7.792459,0 -14.6157592,4.683717 -16.7500002,13.59375 -2.46182,10.212966 -2.5710151,16.586023 0,27.25 1.9059283,7.937852 6.4575432,13.593748 14.2500002,13.59375 l 9.21875,0 0,-12.25 c 0,-8.849902 7.657144,-16.656248 16.75,-16.65625 l 26.78125,0 c 7.454951,0 13.406253,-6.138164 13.40625,-13.625 l 0,-25.53125 c 0,-7.266339 -6.12998,-12.7247775 -13.40625,-13.9375001 -4.605987,-0.7667253 -9.385097,-1.1150483 -13.96875,-1.09375 z m -14.5,8.2187501 c 2.769547,0 5.03125,2.298646 5.03125,5.125 -2e-6,2.816336 -2.261703,5.09375 -5.03125,5.09375 -2.779476,-1e-6 -5.03125,-2.277415 -5.03125,-5.09375 -1e-6,-2.826353 2.251774,-5.125 5.03125,-5.125 z"
             style="fill:url(#linearGradient1478);fill-opacity:1"
             inkscape:connector-curvature="0" />
          <path
             id="path1950"
             d="m 91.228906,35.054223 0,11.90625 c 0,9.230755 -7.825895,16.999999 -16.75,17 l -26.78125,0 c -7.335833,0 -13.406249,6.278483 -13.40625,13.625 l 0,25.531247 c 0,7.26634 6.318588,11.54032 13.40625,13.625 8.487331,2.49561 16.626237,2.94663 26.78125,0 6.750155,-1.95439 13.406253,-5.88761 13.40625,-13.625 l 0,-10.218747 -26.78125,0 0,-3.40625 26.78125,0 13.406254,0 c 7.79246,0 10.69625,-5.435408 13.40624,-13.59375 2.79933,-8.398886 2.68022,-16.475776 0,-27.25 -1.92578,-7.757441 -5.60387,-13.59375 -13.40624,-13.59375 l -10.062504,0 z m -15.0625,64.65625 c 2.779478,3e-6 5.03125,2.277417 5.03125,5.093747 -2e-6,2.82635 -2.251775,5.125 -5.03125,5.125 -2.76955,0 -5.03125,-2.29865 -5.03125,-5.125 2e-6,-2.81633 2.261697,-5.093747 5.03125,-5.093747 z"
             style="fill:url(#linearGradient1475);fill-opacity:1"
             inkscape:connector-curvature="0" />
          <path
             sodipodi:nodetypes="ccccccccccccccccccccccc"
             id="text3004"
             style="font-style:normal;font-weight:normal;font-size:15.16445827px;line-height:125%;font-family:'Bitstream Vera Sans';fill:#646464;fill-opacity:1;stroke:none;stroke-width:1px;stroke-linecap:butt;stroke-linejoin:miter;stroke-opacity:1"
             d="m 463.5544,26.909383 1.56195,0 0,-9.79624 3.70013,0 0,-1.16766 -8.96221,0 0,1.16766 3.70013,0 0,9.79624 m 6.64702,0 1.33447,0 0,-8.94703 2.89641,8.945906 1.48569,0 3.01816,-8.915576 0,8.9167 1.45579,0 0,-10.9639 -1.92589,0 -3.29831,9.392857 -2.81297,-9.392857 -2.15335,0 0,10.9639"
             inkscape:connector-curvature="0" />
          <ellipse
             transform="matrix(0.73406,0,0,0.809524,16.24958,27.00935)"
             id="path1894"
             style="opacity:0.44382025;fill:url(#radialGradient1480);fill-opacity:1;fill-rule:nonzero;stroke:none;stroke-width:20;stroke-miterlimit:4;stroke-dasharray:none;stroke-opacity:1"
             cx="61.518883"
             cy="132.28575"
             rx="48.948284"
             ry="8.6066771" />
        </g>
        <flowRoot
           xml:space="preserve"
           id="flowRoot4210"
           style="font-style:normal;font-variant:normal;font-weight:500;font-stretch:normal;line-height:0.01%;font-family:Flux;-inkscape-font-specification:'Flux Medium';letter-spacing:0px;word-spacing:0px;fill:#b1b1b1;fill-opacity:0.97647059;stroke:none;stroke-width:1px;stroke-linecap:butt;stroke-linejoin:miter;stroke-opacity:1"
           transform="matrix(1.0442246,0,0,1.0354291,346.1356,-48.124964)"><flowRegion
             id="flowRegion4212"><rect
               id="rect4214"
               width="1457.9159"
               height="428.09442"
               x="411.23312"
               y="1308.0337"
               style="font-style:normal;font-variant:normal;font-weight:500;font-stretch:normal;font-family:Flux;-inkscape-font-specification:'Flux Medium';fill:#b1b1b1;fill-opacity:0.97647059" /></flowRegion><flowPara
             id="flowPara4216"
             style="font-size:118.54317474px;line-height:1.25;letter-spacing:-2.85669255px;word-spacing:-0.00961707px;fill:#b1b1b1;fill-opacity:0.97647059">brasil</flowPara></flowRoot>      </g>
      <text
         id="text4290"
         y="1002.2072"
         x="444.69693"
         style="font-style:normal;font-variant:normal;font-weight:normal;font-stretch:normal;line-height:0%;font-family:'Roboto Condensed';-inkscape-font-specification:'Roboto Condensed, ';letter-spacing:0px;word-spacing:0px;fill:#000000;fill-opacity:1;stroke:none;stroke-width:1px;stroke-linecap:butt;stroke-linejoin:miter;stroke-opacity:1"
         xml:space="preserve"><tspan
           y="1002.2072"
           x="444.69693"
           id="tspan4292"
           sodipodi:role="line"
           style="font-size:13.42177391px;line-height:1.25">ASSOCIACAO PYTHON BRASIL</tspan><tspan
           id="tspan4294"
           y="1018.9844"
           x="444.69693"
           sodipodi:role="line"
           style="font-size:13.42177391px;line-height:1.25">CNPJ: 09.344.485/0001­05</tspan><tspan
           id="tspan4296"
           y="1035.7616"
           x="444.69693"
           sodipodi:role="line"
           style="font-size:13.42177391px;line-height:1.25"> </tspan></text>
    </g>
  </g>
</svg>
